<?xml version="1.0" encoding="iso-8859-1"?>
<!-- Generator: Adobe Illustrator 19.0.0, SVG Export Plug-In . SVG Version: 6.00 Build 0)  -->
<svg version="1.1" id="Layer_1" xmlns="http://www.w3.org/2000/svg" xmlns:xlink="http://www.w3.org/1999/xlink" x="0px" y="0px"
	 viewBox="0 0 512 512" style="enable-background:new 0 0 512 512;" xml:space="preserve">
<rect x="142.84" y="184.575" style="fill:#FF7731;" width="226.32" height="170.673"/>
<rect x="179.945" y="214.561" style="fill:#8C4F39;" width="152.121" height="107.296"/>
<polygon style="fill:#FF7731;" points="296.812,54.722 296.812,10.199 215.188,10.199 215.188,54.722 142.839,184.579 
	369.161,184.579 "/>
<path d="M379.31,183.759c-0.115-1.432-0.517-2.848-1.239-4.144l-71.06-127.543V10.199C307.011,4.567,302.444,0,296.812,0h-81.623
	c-5.632,0-10.199,4.567-10.199,10.199v41.873l-71.06,127.543c-0.854,1.533-1.274,3.229-1.281,4.925
	c-0.001,0.013-0.009,0.025-0.009,0.039v170.669v146.552c0,5.632,4.567,10.199,10.199,10.199s10.199-4.567,10.199-10.199V365.448
	h205.924v136.353c0,5.632,4.567,10.199,10.199,10.199c5.632,0,10.199-4.567,10.199-10.199V355.248L379.31,183.759z M221.181,64.92
	h46.877c5.632,0,10.199-4.567,10.199-10.199s-4.567-10.199-10.199-10.199h-42.67V20.398h61.225v34.322
	c0,1.737,0.445,3.446,1.29,4.964l63.901,114.694H160.196L221.181,64.92z M153.038,345.049V194.778h205.924v150.271H153.038z"/>
<path d="M332.059,204.366H179.941c-5.632,0-10.199,4.567-10.199,10.199v107.291c0,5.632,4.567,10.199,10.199,10.199h152.117
	c5.632,0,10.199-4.567,10.199-10.199V214.565C342.258,208.933,337.692,204.366,332.059,204.366z M321.859,311.656H190.141v-86.892
	h131.719V311.656z"/>
<path d="M207.767,306.083h56.581c5.632,0,10.199-4.567,10.199-10.199c0-5.632-4.567-10.199-10.199-10.199h-56.581
	c-5.632,0-10.199,4.567-10.199,10.199C197.568,301.516,202.135,306.083,207.767,306.083z"/>
<path d="M293.102,306.083h7.42c5.632,0,10.199-4.567,10.199-10.199c0-5.632-4.567-10.199-10.199-10.199h-7.42
	c-5.632,0-10.199,4.567-10.199,10.199C282.902,301.516,287.469,306.083,293.102,306.083z"/>
<g>
</g>
<g>
</g>
<g>
</g>
<g>
</g>
<g>
</g>
<g>
</g>
<g>
</g>
<g>
</g>
<g>
</g>
<g>
</g>
<g>
</g>
<g>
</g>
<g>
</g>
<g>
</g>
<g>
</g>
</svg>
