<svg width="673" height="673" viewBox="0 0 673 673" fill="none" xmlns="http://www.w3.org/2000/svg">
<path d="M336.155 672.31C521.808 672.31 672.31 521.808 672.31 336.155C672.31 150.502 521.808 0 336.155 0C150.502 0 0 150.502 0 336.155C0 521.808 150.502 672.31 336.155 672.31Z" fill="#B3E3FA"/>
<path d="M296.788 390.242L272.771 414.259L14.9695 156.457C8.3383 149.825 8.3383 139.071 14.9695 132.44C21.6007 125.809 32.355 125.809 38.9862 132.44L296.788 390.242Z" fill="#A66A42"/>
<path d="M21.2593 128.475C18.9613 129.289 16.8078 130.602 14.9695 132.44C8.3383 139.071 8.3383 149.826 14.9695 156.457L272.771 414.259L283.027 404.004L25.2248 146.215C20.432 141.409 19.1189 134.462 21.2593 128.475Z" fill="#975128"/>
<path d="M416.241 353.015C418.119 353.317 419.944 353.252 421.691 352.871C426.024 351.912 430.856 354.053 433.509 357.782C433.85 358.255 434.192 358.727 434.546 359.187C446.101 374.169 464.918 380.459 476.579 373.224C477.997 372.344 479.231 371.307 480.295 370.138C482.264 367.985 485.166 366.763 488.37 367.079C501.081 368.313 512.243 364.203 517.14 355.234C521.999 346.332 519.491 334.816 511.717 324.836C509.656 322.197 509.091 318.966 509.905 316.038C510.339 314.449 510.562 312.782 510.536 311.062C510.312 297.34 494.857 284.905 476.014 283.289C475.423 283.237 474.845 283.197 474.268 283.171C469.698 282.961 465.286 280.046 463.75 275.883C463.132 274.216 462.2 272.64 460.926 271.222C454.545 264.131 442.175 263.803 433.299 270.487C429.661 273.218 427.193 276.698 425.958 280.348C424.685 284.13 421.113 286.638 416.74 286.572C407.509 286.428 400.13 291.102 400.13 291.102C400.13 291.102 400.445 299.388 405.684 307.398C408.035 310.996 407.824 315.329 405.303 318.323C402.756 321.369 401.062 325.453 400.721 330.154C399.867 341.25 406.826 351.479 416.241 353.015Z" fill="#9ACA3C"/>
<path d="M408.612 301.423C412.985 301.489 416.556 298.981 417.83 295.199C419.065 291.549 421.546 288.069 425.17 285.338C434.047 278.654 446.416 278.982 452.798 286.073C454.072 287.491 455.004 289.054 455.621 290.735C457.158 294.897 461.57 297.799 466.139 298.022C466.717 298.049 467.295 298.088 467.886 298.14C486.742 299.756 502.197 312.191 502.407 325.913C502.434 327.646 502.223 329.3 501.777 330.889C500.976 333.818 501.528 337.048 503.589 339.687C509.104 346.765 511.954 354.617 511.415 361.774C513.753 360.014 515.696 357.847 517.114 355.261C521.973 346.358 519.465 334.842 511.691 324.862C509.629 322.223 509.065 318.993 509.879 316.064C510.312 314.475 510.535 312.808 510.509 311.088C510.286 297.366 494.831 284.931 475.988 283.315C475.397 283.263 474.819 283.224 474.241 283.197C469.672 282.987 465.246 280.072 463.723 275.91C463.106 274.242 462.174 272.666 460.9 271.248C454.518 264.157 442.149 263.829 433.272 270.513C429.635 273.244 427.166 276.724 425.932 280.374C424.658 284.156 421.087 286.664 416.714 286.598C407.483 286.454 400.103 291.128 400.103 291.128C400.103 291.128 400.3 296.039 402.782 301.948C404.594 301.607 406.551 301.384 408.612 301.423Z" fill="#8BC63F"/>
<path d="M376.888 283.289C376.454 281.806 376.586 280.164 377.387 278.707C378.975 275.792 382.639 274.715 385.554 276.304L463.75 319.006C466.665 320.595 467.741 324.258 466.152 327.173C464.564 330.088 460.9 331.165 457.985 329.576L379.79 286.874C378.319 286.086 377.321 284.773 376.888 283.289Z" fill="#78AA41"/>
<path d="M108.633 507.121C85.1285 507.121 65.9966 487.989 65.9966 464.485C65.9966 440.98 85.1285 421.848 108.633 421.848C132.138 421.848 151.27 440.98 151.27 464.485C151.27 487.989 132.138 507.121 108.633 507.121ZM108.633 445.484C98.1545 445.484 89.6325 454.006 89.6325 464.485C89.6325 474.963 98.1545 483.486 108.633 483.486C119.112 483.486 127.634 474.963 127.634 464.485C127.634 454.006 119.112 445.484 108.633 445.484Z" fill="#E43543"/>
<path d="M562.075 507.121C538.57 507.121 519.438 487.989 519.438 464.485C519.438 440.98 538.57 421.848 562.075 421.848C585.579 421.848 604.711 440.98 604.711 464.485C604.711 487.989 585.592 507.121 562.075 507.121ZM562.075 445.484C551.596 445.484 543.074 454.006 543.074 464.485C543.074 474.963 551.596 483.486 562.075 483.486C572.553 483.486 581.075 474.963 581.075 464.485C581.075 454.006 572.553 445.484 562.075 445.484Z" fill="#F04A58"/>
<path d="M499.505 626.916H169.312C134.751 626.916 106.742 598.907 106.742 564.346V363.704H562.075V564.346C562.075 598.907 534.066 626.916 499.505 626.916Z" fill="#F04A58"/>
<path d="M152.714 564.346V412.289H562.088V363.704H106.742V564.346C106.742 598.907 134.751 626.916 169.312 626.916H215.283C180.723 626.916 152.714 598.907 152.714 564.346Z" fill="#E43543"/>
<path d="M545.346 347.041H123.471C107.32 347.041 94.2283 360.132 94.2283 376.283V390.36H574.588V376.283C574.588 360.132 561.497 347.041 545.346 347.041Z" fill="#F8991D"/>
<path d="M224.58 347.041H123.471C107.32 347.041 94.2283 360.132 94.2283 376.283V390.36H195.337V376.283C195.337 360.132 208.429 347.041 224.58 347.041Z" fill="#E18826"/>
<path d="M481.319 190.23C466.008 208.403 440.888 191.74 412.63 167.933C384.372 144.127 363.691 122.198 379.002 104.024C394.312 85.8509 439.825 78.3268 468.07 102.12C496.328 125.94 496.63 172.056 481.319 190.23Z" fill="#F9D2B5"/>
<path d="M393.538 116.262C407.509 99.678 446.64 91.97 474.845 108.843C472.797 106.454 470.551 104.208 468.096 102.133C439.838 78.3269 394.339 85.8641 379.028 104.037C363.717 122.211 384.399 144.14 412.657 167.946C415.125 170.021 417.555 172.043 419.971 173.987C395.573 152.57 379.553 132.847 393.538 116.262Z" fill="#F8A073"/>
<path d="M456.225 196.415C462.935 179.068 459.731 150.521 440.77 134.541C421.809 118.561 393.131 120.254 377.176 129.801C381.326 137.981 389.021 146.608 398.619 155.577C382.363 166.817 366.002 181.235 361.025 187.144C351.387 198.581 352.845 215.678 364.282 225.316C375.719 234.954 392.816 233.497 402.467 222.046C407.444 216.137 418.868 197.57 427.193 179.646C437.645 187.59 447.454 193.71 456.225 196.415Z" fill="#FBBF9B"/>
<path d="M373.119 197.333C378.096 191.424 394.457 177.02 410.713 165.766C401.127 156.811 393.42 148.184 389.27 139.99C403.491 131.468 427.823 129.223 446.377 140.148C444.683 138.152 442.819 136.261 440.77 134.528C421.809 118.547 393.131 120.241 377.176 129.787C381.326 137.968 389.021 146.595 398.619 155.564C382.363 166.804 366.002 181.222 361.025 187.131C351.387 198.568 352.845 215.664 364.282 225.303C366.383 227.075 368.681 228.467 371.084 229.504C364.781 219.774 365.253 206.683 373.119 197.333Z" fill="#F8A073"/>
<path d="M427.193 179.659L410.713 165.78L401.981 172.096L427.193 179.659Z" fill="#F8A073"/>
<path d="M306.269 159.411C309.88 159.174 312.808 155.655 312.808 152.031C312.808 137.232 319.951 123.353 331.992 114.752L356.889 96.9727C360.04 94.7272 360.762 90.3546 358.517 87.2032C356.272 84.0386 351.886 83.3295 348.747 85.5749C346.108 87.4526 342.852 84.2224 344.716 81.5831L344.742 81.5305C346.843 78.5367 346.528 74.3216 343.745 71.9449C340.554 69.2136 335.8 69.8833 333.437 73.2317C331.677 75.7397 327.764 73.862 328.618 70.9206L329.379 68.255C330.39 64.7359 328.723 60.8623 325.322 59.5229C321.409 57.9866 317.128 60.1532 315.999 64.0925C315.775 64.8672 315.014 65.3662 314.213 65.248C313.412 65.1299 312.808 64.447 312.808 63.6329V61.5976C312.808 57.934 310.129 54.6644 306.492 54.323C302.316 53.9291 298.797 57.1987 298.797 61.2956V63.843C298.797 64.7228 298.153 65.4581 297.287 65.5894C296.42 65.7208 295.593 65.1824 295.343 64.342C294.306 60.836 290.826 58.4461 287.228 59.1421C283.105 59.93 280.65 64.0662 281.805 68.0056L282.646 70.855C283.027 72.1287 282.423 73.4943 281.214 74.0721C280.02 74.6499 278.575 74.2822 277.8 73.1923C275.424 69.857 270.67 69.2136 267.493 71.9449C264.722 74.3347 264.42 78.5498 266.534 81.5305L266.705 81.78C267.506 82.9093 267.374 84.4456 266.389 85.4173C265.405 86.389 263.881 86.5203 262.752 85.7193C259.811 83.6315 255.648 83.8547 253.245 86.5466C250.672 89.4092 250.921 93.6374 253.482 96.1979C253.757 96.4737 254.059 96.7363 254.388 96.9595L279.468 114.752C291.575 123.34 298.771 137.272 298.771 152.123V152.399C298.771 154.329 299.559 156.089 300.819 157.349C302.211 158.741 304.154 159.542 306.269 159.411Z" fill="#9ACA3C"/>
<path d="M313.467 144.403C310.657 134.45 304.537 125.586 295.897 119.454L270.817 101.662C270.489 101.425 270.187 101.176 269.911 100.9C267.35 98.3395 267.101 94.1114 269.675 91.2488C272.091 88.5569 276.24 88.3337 279.181 90.4215C280.311 91.2225 281.847 91.0912 282.819 90.1195C283.79 89.1478 283.922 87.6115 283.134 86.4822L282.963 86.2327C280.849 83.2388 281.151 79.0369 283.922 76.6471C287.099 73.9158 291.853 74.5461 294.23 77.8945C295.004 78.9844 296.436 79.3521 297.644 78.7743C298.852 78.1965 299.443 76.8309 299.075 75.5572L298.235 72.7077C297.079 68.7816 299.535 64.6453 303.658 63.8443C307.256 63.1483 310.735 65.5382 311.773 69.0442C312.022 69.8846 312.849 70.4098 313.716 70.2916C314.583 70.1734 315.226 69.425 315.226 68.5452V65.9978C315.226 65.6564 315.279 65.3412 315.331 65.0261C315.016 65.223 314.635 65.315 314.241 65.2624C313.44 65.1443 312.836 64.4614 312.836 63.6473V61.612C312.836 57.9484 310.158 54.6788 306.52 54.3374C302.345 53.9435 298.826 57.2131 298.826 61.31V63.8574C298.826 64.7372 298.182 65.4725 297.315 65.6038C296.449 65.7352 295.622 65.1968 295.372 64.3564C294.335 60.8504 290.855 58.4605 287.257 59.1565C283.134 59.9444 280.678 64.0806 281.834 68.02L282.674 70.8694C283.055 72.1431 282.451 73.5087 281.243 74.0865C280.048 74.6643 278.604 74.2966 277.829 73.2067C275.452 69.8583 270.699 69.228 267.521 71.9593C264.75 74.3491 264.448 78.5642 266.562 81.5449L266.733 81.7944C267.534 82.9237 267.403 84.46 266.418 85.4317C265.446 86.4034 263.91 86.5347 262.781 85.7337C259.839 83.6459 255.677 83.8691 253.274 86.561C250.7 89.4236 250.95 93.6518 253.51 96.2123C253.786 96.4881 254.088 96.7507 254.416 96.9739L279.497 114.767C291.603 123.354 298.799 137.286 298.799 152.137V152.413C298.799 154.343 299.587 156.103 300.848 157.364C302.213 158.729 304.157 159.543 306.271 159.399C309.882 159.163 312.81 155.643 312.81 152.019C312.81 149.446 313.033 146.898 313.467 144.403Z" fill="#8BC63F"/>
<path d="M323.864 233.917L249.372 168.892C238.683 159.569 223.898 157.113 210.451 161.617C210.386 161.643 210.32 161.669 210.241 161.683C194.116 167.001 181.812 177.427 177.007 191.858C167.171 221.403 192.527 256.436 233.654 270.132C274.767 283.828 316.077 270.972 325.913 241.428C326.806 238.749 326.005 235.781 323.864 233.917Z" fill="#F04A58"/>
<path d="M265.484 225.224C242.36 217.529 225.959 200.761 222.453 183.546C221.862 180.67 219.735 178.359 216.912 177.545C214.089 176.731 211.055 177.558 209.033 179.685C205.842 183.047 203.4 186.973 201.929 191.411C194.602 213.406 213.498 239.51 244.119 249.713C266.81 257.263 289.592 253.968 302.841 242.806C305.481 240.574 306.361 236.884 305.008 233.706C303.656 230.529 300.386 228.585 296.959 228.94C287.137 229.951 276.304 228.835 265.484 225.224Z" fill="#D13B27"/>
<path d="M212.303 195.128C213.747 195.062 216.61 196.086 218.685 196.913C219.131 197.097 219.433 197.517 219.459 198.003C219.486 198.489 219.21 198.936 218.776 199.159C216.781 200.157 214.01 201.404 212.565 201.47C210.162 201.575 208.14 200.235 208.075 198.489C208.009 196.716 209.9 195.219 212.303 195.128Z" fill="#F5C933"/>
<path d="M220.483 212.763C221.875 211.725 225.421 210.793 228.034 210.215C228.598 210.084 229.189 210.307 229.544 210.78C229.885 211.253 229.938 211.87 229.649 212.382C228.349 214.719 226.432 217.844 225.04 218.882C222.716 220.615 219.801 220.654 218.553 218.96C217.306 217.267 218.159 214.496 220.483 212.763Z" fill="#F5C933"/>
<path d="M233.838 225.933C234.875 224.541 238 222.624 240.338 221.311C240.85 221.022 241.48 221.061 241.94 221.416C242.399 221.771 242.622 222.348 242.504 222.926C241.927 225.539 241.007 229.085 239.97 230.49C238.237 232.814 235.466 233.694 233.772 232.433C232.078 231.172 232.104 228.257 233.838 225.933Z" fill="#F5C933"/>
<path d="M248.925 236.123C249.516 234.494 251.946 231.75 253.81 229.82C254.217 229.4 254.821 229.255 255.373 229.452C255.924 229.649 256.305 230.148 256.344 230.726C256.555 233.405 256.686 237.055 256.108 238.696C255.123 241.428 252.733 243.056 250.737 242.347C248.768 241.638 247.954 238.841 248.925 236.123Z" fill="#F5C933"/>
<path d="M268.175 241.034C268.346 239.629 269.777 237.003 270.894 235.112C271.143 234.705 271.603 234.481 272.075 234.534C272.548 234.586 272.942 234.915 273.086 235.374C273.743 237.462 274.531 240.351 274.36 241.756C274.084 244.106 272.469 245.853 270.762 245.656C269.055 245.459 267.9 243.384 268.175 241.034Z" fill="#F5C933"/>
<path d="M286.27 241.611C286.191 240.64 286.782 238.683 287.281 237.278C287.386 236.976 287.662 236.753 287.99 236.727C288.319 236.7 288.621 236.858 288.778 237.147C289.5 238.46 290.433 240.285 290.511 241.257C290.643 242.872 289.815 244.264 288.634 244.369C287.452 244.474 286.414 243.227 286.27 241.611Z" fill="#F5C933"/>
</svg>
