<?xml version="1.0" encoding="iso-8859-1"?>
<!-- Generator: Adobe Illustrator 19.0.0, SVG Export Plug-In . SVG Version: 6.00 Build 0)  -->
<svg version="1.1" id="Layer_1" xmlns="http://www.w3.org/2000/svg" xmlns:xlink="http://www.w3.org/1999/xlink" x="0px" y="0px"
	 viewBox="0 0 503.467 503.467" style="enable-background:new 0 0 503.467 503.467;" xml:space="preserve">
<g transform="translate(7 1)">
	<path style="fill:#C49AE9;" d="M321.533,139.8h51.2V54.467h-51.2V139.8z M441,242.2v221.867H253.267V242.2
		c0-17.067,51.2-34.133,51.2-51.2H389.8C389.8,208.067,441,225.133,441,242.2z"/>
	<path style="fill:#F2EDDA;" d="M48.467,378.733H185V259.267H48.467V378.733z M99.667,71.533H133.8V3.267H99.667V71.533z"/>
	<path style="fill:#FFE079;" d="M48.467,464.067H185v-85.333H48.467V464.067z M185,259.267H48.467c0-25.6,8.533-42.667,8.533-42.667
		s42.667-76.8,42.667-128V71.533H133.8V88.6c0,51.2,42.667,128,42.667,128S185,233.667,185,259.267z"/>
	<path style="fill:#F2EDDA;" d="M389.8,191h-85.333c0-8.533,0-25.6,17.067-51.2h51.2C389.8,165.4,389.8,182.467,389.8,191z
		 M347.133,293.4c33.28,0,59.733,23.04,59.733,51.2c0,28.16-26.453,51.2-59.733,51.2S287.4,372.76,287.4,344.6
		C287.4,316.44,313.853,293.4,347.133,293.4z"/>
</g>
<path style="fill:#51565F;" d="M499.2,503.467H4.267C1.707,503.467,0,501.76,0,499.2c0-2.56,1.707-4.267,4.267-4.267H499.2
	c2.56,0,4.267,1.707,4.267,4.267C503.467,501.76,501.76,503.467,499.2,503.467z M448,469.333H260.267
	c-2.56,0-4.267-1.707-4.267-4.267V243.2c0-11.093,13.653-19.627,27.307-29.013C293.547,207.36,307.2,197.973,307.2,192
	c0-8.533,0-26.453,17.067-52.907V55.467c0-2.56,1.707-4.267,4.267-4.267h51.2c2.56,0,4.267,1.707,4.267,4.267v83.627
	c17.067,26.453,17.067,43.52,17.067,52.907c0,5.973,12.8,15.36,23.893,22.187c14.507,9.387,27.307,17.92,27.307,29.013v221.867
	C452.267,467.627,450.56,469.333,448,469.333z M264.533,460.8h179.2V243.2c0-5.973-12.8-15.36-23.893-22.187
	c-14.507-9.387-27.307-17.92-27.307-29.013c0-8.533,0-23.893-16.213-48.64c-0.853-0.853-0.853-1.707-0.853-2.56V59.733H332.8v76.8
	h12.8c2.56,0,4.267,1.707,4.267,4.267c0,2.56-1.707,4.267-4.267,4.267h-14.507c-12.8,19.627-14.507,34.133-15.36,42.667h46.933
	c2.56,0,4.267,1.707,4.267,4.267c0,2.56-1.707,4.267-4.267,4.267H314.88c-2.56,8.533-14.507,17.067-26.453,24.747
	c-10.24,6.827-23.893,16.213-23.893,22.187L264.533,460.8L264.533,460.8z M192,469.333H55.467c-2.56,0-4.267-1.707-4.267-4.267
	v-204.8c0-26.453,8.533-43.52,9.387-44.373C61.44,215.04,102.4,139.093,102.4,89.6V4.267c0-2.56,1.707-4.267,4.267-4.267H140.8
	c2.56,0,4.267,1.707,4.267,4.267V89.6c0,49.493,41.813,125.44,41.813,126.293c0.853,0.853,9.387,18.773,9.387,44.373v204.8
	C196.267,467.627,194.56,469.333,192,469.333z M59.733,460.8h128V260.267c0-23.893-7.68-40.96-7.68-40.96
	c-1.707-3.413-43.52-78.507-43.52-129.707V8.533h-25.6v59.733h4.267c2.56,0,4.267,1.707,4.267,4.267c0,2.56-1.707,4.267-4.267,4.267
	h-4.267v12.8c0,52.053-41.813,127.147-43.52,129.707l0,0c0,0-6.827,14.507-7.68,36.693h98.133c2.56,0,4.267,1.707,4.267,4.267
	c0,2.56-1.707,4.267-4.267,4.267H59.733v110.933h98.133c2.56,0,4.267,1.707,4.267,4.267c0,2.56-1.707,4.267-4.267,4.267H59.733
	V460.8z M354.133,401.067c-34.987,0-64-24.747-64-55.467s29.013-55.467,64-55.467s64,24.747,64,55.467
	S389.12,401.067,354.133,401.067z M354.133,298.667c-30.72,0-55.467,21.333-55.467,46.933c0,25.6,24.747,46.933,55.467,46.933
	S409.6,371.2,409.6,345.6C409.6,320,384.853,298.667,354.133,298.667z"/>
<g>
</g>
<g>
</g>
<g>
</g>
<g>
</g>
<g>
</g>
<g>
</g>
<g>
</g>
<g>
</g>
<g>
</g>
<g>
</g>
<g>
</g>
<g>
</g>
<g>
</g>
<g>
</g>
<g>
</g>
</svg>
